<svg xmlns="http://www.w3.org/2000/svg" xmlns:xlink="http://www.w3.org/1999/xlink" width="1280" zoomAndPan="magnify" viewBox="0 0 375 374.999991" height="720" preserveAspectRatio="xMidYMid meet" version="1.0"><defs><g/></defs><g fill="#008cff" fill-opacity="1"><g transform="translate(31.340521, 266.233298)"><g><path d="M 46.40625 -38.453125 L 46.40625 0 L 38.71875 0 L 38.71875 -17.78125 C 38.71875 -23.863281 38.753906 -28.242188 38.828125 -30.921875 C 37.796875 -26.460938 36.609375 -22.097656 35.265625 -17.828125 L 29.859375 0 L 21.5 0 L 15.984375 -17.890625 C 14.578125 -22.609375 13.425781 -26.9375 12.53125 -30.875 C 12.601562 -28.195312 12.640625 -23.832031 12.640625 -17.78125 L 12.640625 0 L 4.953125 0 L 4.953125 -38.453125 L 17.109375 -38.453125 L 25.796875 -7.078125 L 34.484375 -38.453125 Z M 46.40625 -38.453125 "/></g></g></g><g fill="#008cff" fill-opacity="1"><g transform="translate(81.327206, 266.233298)"><g><path d="M 20.734375 0 L 20.171875 -4.34375 L 18.71875 -1.171875 C 16.789062 0.128906 14.335938 0.78125 11.359375 0.78125 C 8.648438 0.78125 6.382812 0.0195312 4.5625 -1.5 C 2.75 -3.019531 1.84375 -5.140625 1.84375 -7.859375 C 1.84375 -11.128906 3.222656 -13.644531 5.984375 -15.40625 C 8.753906 -17.164062 12.816406 -18.046875 18.171875 -18.046875 L 20.0625 -18.046875 L 20.0625 -18.671875 C 20.0625 -19.859375 20.023438 -20.785156 19.953125 -21.453125 C 19.691406 -23.828125 18.164062 -25.015625 15.375 -25.015625 C 12.289062 -25.015625 10.640625 -23.34375 10.421875 -20 L 2.953125 -19.953125 C 3.066406 -23.210938 4.300781 -25.769531 6.65625 -27.625 C 9.019531 -29.488281 12.019531 -30.421875 15.65625 -30.421875 C 23.050781 -30.421875 27.007812 -27.503906 27.53125 -21.671875 C 27.632812 -20.265625 27.6875 -18.742188 27.6875 -17.109375 L 27.6875 -7.515625 C 27.6875 -5.253906 27.875 -2.75 28.25 0 Z M 14.3125 -4.625 C 15.945312 -4.625 17.3125 -5.179688 18.40625 -6.296875 C 19.507812 -7.410156 20.0625 -8.953125 20.0625 -10.921875 L 20.0625 -13.3125 C 13.226562 -13.800781 9.8125 -12.1875 9.8125 -8.46875 C 9.8125 -5.90625 11.3125 -4.625 14.3125 -4.625 Z M 14.3125 -4.625 "/></g></g></g><g fill="#008cff" fill-opacity="1"><g transform="translate(112.645515, 266.233298)"><g><path d="M 18.609375 -30.359375 C 19.460938 -30.359375 20.1875 -30.285156 20.78125 -30.140625 L 20.78125 -23.953125 C 17.507812 -24.179688 15.09375 -23.488281 13.53125 -21.875 C 11.976562 -20.257812 11.203125 -17.5 11.203125 -13.59375 L 11.203125 0 L 3.515625 0 L 3.515625 -29.640625 L 11.203125 -29.640625 L 11.203125 -24.234375 L 13.546875 -28.359375 C 14.992188 -29.691406 16.679688 -30.359375 18.609375 -30.359375 Z M 18.609375 -30.359375 "/></g></g></g><g fill="#008cff" fill-opacity="1"><g transform="translate(133.821593, 266.233298)"><g><path d="M 4.28125 -39.53125 C 5.0625 -40.289062 6.082031 -40.671875 7.34375 -40.671875 C 8.613281 -40.671875 9.640625 -40.289062 10.421875 -39.53125 C 11.203125 -38.769531 11.59375 -37.796875 11.59375 -36.609375 C 11.59375 -35.378906 11.203125 -34.394531 10.421875 -33.65625 C 9.640625 -32.914062 8.613281 -32.546875 7.34375 -32.546875 C 6.082031 -32.546875 5.0625 -32.914062 4.28125 -33.65625 C 3.507812 -34.394531 3.125 -35.378906 3.125 -36.609375 C 3.125 -37.796875 3.507812 -38.769531 4.28125 -39.53125 Z M 11.203125 0 L 3.515625 0 L 3.515625 -29.640625 L 11.203125 -29.640625 Z M 11.203125 0 "/></g></g></g><g fill="#008cff" fill-opacity="1"><g transform="translate(148.644842, 266.233298)"><g><path d="M 30.421875 -15.4375 C 30.421875 -14.351562 30.382812 -13.476562 30.3125 -12.8125 L 9.25 -12.8125 C 9.695312 -7.351562 11.984375 -4.625 16.109375 -4.625 C 17.773438 -4.625 19.15625 -5.066406 20.25 -5.953125 C 21.34375 -6.847656 22.019531 -8.078125 22.28125 -9.640625 L 29.984375 -9.640625 C 29.234375 -6.253906 27.601562 -3.671875 25.09375 -1.890625 C 22.59375 -0.109375 19.539062 0.78125 15.9375 0.78125 C 11.664062 0.78125 8.191406 -0.546875 5.515625 -3.203125 C 2.835938 -5.859375 1.5 -9.691406 1.5 -14.703125 C 1.5 -19.316406 2.882812 -23.085938 5.65625 -26.015625 C 8.425781 -28.953125 12.054688 -30.421875 16.546875 -30.421875 C 20.890625 -30.421875 24.285156 -28.988281 26.734375 -26.125 C 29.191406 -23.269531 30.421875 -19.707031 30.421875 -15.4375 Z M 16.21875 -25.015625 C 12.382812 -25.015625 10.132812 -22.617188 9.46875 -17.828125 L 22.515625 -17.828125 C 21.992188 -22.617188 19.894531 -25.015625 16.21875 -25.015625 Z M 16.21875 -25.015625 "/></g></g></g><g fill="#008cff" fill-opacity="1"><g transform="translate(180.854768, 266.233298)"><g><path d="M 12.703125 -24.34375 L 12.703125 -10.640625 C 12.703125 -9.410156 12.722656 -8.539062 12.765625 -8.03125 C 12.867188 -6.570312 13.289062 -5.628906 14.03125 -5.203125 C 14.78125 -4.773438 16.210938 -4.640625 18.328125 -4.796875 L 18.328125 0.21875 C 16.734375 0.476562 15.046875 0.609375 13.265625 0.609375 C 10.441406 0.609375 8.425781 0.132812 7.21875 -0.8125 C 6.007812 -1.757812 5.3125 -3.304688 5.125 -5.453125 C 5.050781 -6.347656 5.015625 -7.78125 5.015625 -9.75 L 5.015625 -24.34375 L 0.671875 -24.34375 L 0.671875 -29.421875 L 5.015625 -29.421875 L 5.015625 -36.71875 L 12.703125 -36.71875 L 12.703125 -29.421875 L 18.828125 -29.421875 L 18.828125 -24.34375 Z M 12.703125 -24.34375 "/></g></g></g><g fill="#008cff" fill-opacity="1"><g transform="translate(200.972051, 266.233298)"><g><path d="M 20.734375 0 L 20.171875 -4.34375 L 18.71875 -1.171875 C 16.789062 0.128906 14.335938 0.78125 11.359375 0.78125 C 8.648438 0.78125 6.382812 0.0195312 4.5625 -1.5 C 2.75 -3.019531 1.84375 -5.140625 1.84375 -7.859375 C 1.84375 -11.128906 3.222656 -13.644531 5.984375 -15.40625 C 8.753906 -17.164062 12.816406 -18.046875 18.171875 -18.046875 L 20.0625 -18.046875 L 20.0625 -18.671875 C 20.0625 -19.859375 20.023438 -20.785156 19.953125 -21.453125 C 19.691406 -23.828125 18.164062 -25.015625 15.375 -25.015625 C 12.289062 -25.015625 10.640625 -23.34375 10.421875 -20 L 2.953125 -19.953125 C 3.066406 -23.210938 4.300781 -25.769531 6.65625 -27.625 C 9.019531 -29.488281 12.019531 -30.421875 15.65625 -30.421875 C 23.050781 -30.421875 27.007812 -27.503906 27.53125 -21.671875 C 27.632812 -20.265625 27.6875 -18.742188 27.6875 -17.109375 L 27.6875 -7.515625 C 27.6875 -5.253906 27.875 -2.75 28.25 0 Z M 14.3125 -4.625 C 15.945312 -4.625 17.3125 -5.179688 18.40625 -6.296875 C 19.507812 -7.410156 20.0625 -8.953125 20.0625 -10.921875 L 20.0625 -13.3125 C 13.226562 -13.800781 9.8125 -12.1875 9.8125 -8.46875 C 9.8125 -5.90625 11.3125 -4.625 14.3125 -4.625 Z M 14.3125 -4.625 "/></g></g></g><g fill="#008cff" fill-opacity="1"><g transform="translate(232.29036, 266.233298)"><g/></g></g><g fill="#008cff" fill-opacity="1"><g transform="translate(243.101303, 266.233298)"><g><path d="M 21.453125 -39.21875 C 26.460938 -39.21875 30.378906 -38 33.203125 -35.5625 C 36.023438 -33.132812 37.644531 -29.9375 38.0625 -25.96875 L 38.109375 -25.40625 L 30.421875 -25.40625 L 30.3125 -25.96875 C 29.3125 -30.976562 26.320312 -33.484375 21.34375 -33.484375 C 18.21875 -33.484375 15.707031 -32.226562 13.8125 -29.71875 C 11.925781 -27.21875 10.984375 -23.796875 10.984375 -19.453125 C 10.984375 -14.804688 11.925781 -11.226562 13.8125 -8.71875 C 15.707031 -6.207031 18.179688 -4.953125 21.234375 -4.953125 C 23.679688 -4.953125 25.644531 -5.640625 27.125 -7.015625 C 28.613281 -8.390625 29.617188 -10.304688 30.140625 -12.765625 L 30.25 -13.3125 L 37.890625 -13.3125 L 37.828125 -12.765625 C 37.421875 -8.597656 35.710938 -5.296875 32.703125 -2.859375 C 29.691406 -0.429688 25.753906 0.78125 20.890625 0.78125 C 15.472656 0.78125 11.109375 -1 7.796875 -4.5625 C 4.492188 -8.132812 2.84375 -12.945312 2.84375 -19 C 2.84375 -25.164062 4.585938 -30.078125 8.078125 -33.734375 C 11.566406 -37.390625 16.023438 -39.21875 21.453125 -39.21875 Z M 21.453125 -39.21875 "/></g></g></g><g fill="#008cff" fill-opacity="1"><g transform="translate(283.112935, 266.233298)"><g><path d="M 20.734375 0 L 20.171875 -4.34375 L 18.71875 -1.171875 C 16.789062 0.128906 14.335938 0.78125 11.359375 0.78125 C 8.648438 0.78125 6.382812 0.0195312 4.5625 -1.5 C 2.75 -3.019531 1.84375 -5.140625 1.84375 -7.859375 C 1.84375 -11.128906 3.222656 -13.644531 5.984375 -15.40625 C 8.753906 -17.164062 12.816406 -18.046875 18.171875 -18.046875 L 20.0625 -18.046875 L 20.0625 -18.671875 C 20.0625 -19.859375 20.023438 -20.785156 19.953125 -21.453125 C 19.691406 -23.828125 18.164062 -25.015625 15.375 -25.015625 C 12.289062 -25.015625 10.640625 -23.34375 10.421875 -20 L 2.953125 -19.953125 C 3.066406 -23.210938 4.300781 -25.769531 6.65625 -27.625 C 9.019531 -29.488281 12.019531 -30.421875 15.65625 -30.421875 C 23.050781 -30.421875 27.007812 -27.503906 27.53125 -21.671875 C 27.632812 -20.265625 27.6875 -18.742188 27.6875 -17.109375 L 27.6875 -7.515625 C 27.6875 -5.253906 27.875 -2.75 28.25 0 Z M 14.3125 -4.625 C 15.945312 -4.625 17.3125 -5.179688 18.40625 -6.296875 C 19.507812 -7.410156 20.0625 -8.953125 20.0625 -10.921875 L 20.0625 -13.3125 C 13.226562 -13.800781 9.8125 -12.1875 9.8125 -8.46875 C 9.8125 -5.90625 11.3125 -4.625 14.3125 -4.625 Z M 14.3125 -4.625 "/></g></g></g><g fill="#008cff" fill-opacity="1"><g transform="translate(314.431244, 266.233298)"><g><path d="M 10.984375 -40.953125 L 10.984375 -9.6875 C 10.984375 -8.394531 11 -7.488281 11.03125 -6.96875 C 11.101562 -6.1875 11.378906 -5.664062 11.859375 -5.40625 C 12.347656 -5.144531 13.222656 -5.050781 14.484375 -5.125 L 14.484375 0.171875 C 13.148438 0.316406 11.570312 0.390625 9.75 0.390625 C 5.664062 0.390625 3.550781 -1.351562 3.40625 -4.84375 C 3.320312 -5.738281 3.28125 -7.300781 3.28125 -9.53125 L 3.28125 -40.953125 Z M 10.984375 -40.953125 "/></g></g></g><g fill="#008cff" fill-opacity="1"><g transform="translate(329.978932, 266.233298)"><g><path d="M 14.09375 -30.421875 C 17.507812 -30.421875 20.238281 -29.566406 22.28125 -27.859375 C 24.332031 -26.148438 25.523438 -23.882812 25.859375 -21.0625 L 18.171875 -21.0625 C 17.648438 -23.925781 16.125 -25.359375 13.59375 -25.359375 C 12.476562 -25.359375 11.613281 -25.066406 11 -24.484375 C 10.382812 -23.910156 10.078125 -23.140625 10.078125 -22.171875 C 10.078125 -21.054688 10.578125 -20.164062 11.578125 -19.5 C 12.585938 -18.832031 14.335938 -18.179688 16.828125 -17.546875 C 20.054688 -16.734375 22.46875 -15.601562 24.0625 -14.15625 C 25.664062 -12.707031 26.46875 -10.679688 26.46875 -8.078125 C 26.46875 -5.210938 25.320312 -3.019531 23.03125 -1.5 C 20.75 0.0195312 17.828125 0.78125 14.265625 0.78125 C 10.546875 0.78125 7.535156 -0.0351562 5.234375 -1.671875 C 2.929688 -3.304688 1.578125 -5.757812 1.171875 -9.03125 L 8.859375 -9.03125 C 9.160156 -7.46875 9.800781 -6.285156 10.78125 -5.484375 C 11.769531 -4.691406 12.96875 -4.296875 14.375 -4.296875 C 15.675781 -4.296875 16.722656 -4.570312 17.515625 -5.125 C 18.316406 -5.6875 18.71875 -6.484375 18.71875 -7.515625 C 18.71875 -8.671875 18.175781 -9.609375 17.09375 -10.328125 C 16.019531 -11.054688 14.203125 -11.738281 11.640625 -12.375 C 8.628906 -13.113281 6.328125 -14.175781 4.734375 -15.5625 C 3.140625 -16.957031 2.34375 -18.863281 2.34375 -21.28125 C 2.34375 -24.101562 3.410156 -26.332031 5.546875 -27.96875 C 7.679688 -29.601562 10.53125 -30.421875 14.09375 -30.421875 Z M 14.09375 -30.421875 "/></g></g></g><g fill="#000000" fill-opacity="1"><g transform="translate(28.705501, 216.994416)"><g><path d="M 73.84375 -68.859375 L 32.828125 -68.859375 L 32.828125 -56.46875 L 70.53125 -56.46875 L 70.53125 -34.625 L 32.828125 -34.625 L 32.828125 -21.84375 L 74.875 -21.84375 L 73.34375 0 L 7.671875 0 L 7.671875 -90.71875 L 73.84375 -90.71875 Z M 73.84375 -68.859375 "/></g></g></g><g fill="#000000" fill-opacity="1"><g transform="translate(104.715306, 216.994416)"><g><path d="M 73.84375 -68.859375 L 32.828125 -68.859375 L 32.828125 -56.46875 L 70.53125 -56.46875 L 70.53125 -34.625 L 32.828125 -34.625 L 32.828125 -21.84375 L 74.875 -21.84375 L 73.34375 0 L 7.671875 0 L 7.671875 -90.71875 L 73.84375 -90.71875 Z M 73.84375 -68.859375 "/></g></g></g><g fill="#000000" fill-opacity="1"><g transform="translate(180.725111, 216.994416)"><g><path d="M 70.65625 -68.859375 L 32.828125 -68.859375 L 32.828125 -55.328125 L 67.328125 -55.328125 L 67.328125 -33.46875 L 32.828125 -33.46875 L 32.828125 0 L 7.671875 0 L 7.671875 -90.71875 L 70.65625 -90.71875 Z M 70.65625 -68.859375 "/></g></g></g></svg>