<?xml version="1.0" standalone="no"?>
<!DOCTYPE svg PUBLIC "-//W3C//DTD SVG 20010904//EN"
 "http://www.w3.org/TR/2001/REC-SVG-20010904/DTD/svg10.dtd">
<svg version="1.0" xmlns="http://www.w3.org/2000/svg"
 width="260.000000pt" height="120.000000pt" viewBox="0 0 260.000000 120.000000"
 preserveAspectRatio="xMidYMid meet">

<g transform="translate(0.000000,120.000000) scale(0.100000,-0.100000)"
fill="#000000" stroke="none">
<path d="M603 983 c9 -2 23 -2 30 0 6 3 -1 5 -18 5 -16 0 -22 -2 -12 -5z"/>
<path d="M547 951 c6 -22 43 -30 43 -9 0 6 -3 8 -7 5 -3 -4 -14 0 -24 9 -16
15 -17 14 -12 -5z"/>
<path d="M662 957 c-24 -14 -20 -27 10 -27 11 0 18 7 18 20 0 23 2 23 -28 7z"/>
<path d="M741 944 c0 -11 3 -14 6 -6 3 7 2 16 -1 19 -3 4 -6 -2 -5 -13z"/>
<path d="M413 940 c-13 -5 -23 -11 -23 -12 0 -8 65 0 68 8 4 13 -19 15 -45 4z"/>
<path d="M770 930 c0 -5 5 -10 10 -10 6 0 10 5 10 10 0 6 -4 10 -10 10 -5 0
-10 -4 -10 -10z"/>
<path d="M610 924 c0 -17 -69 -28 -86 -13 -8 7 -14 7 -14 1 0 -16 -71 -26 -82
-10 -8 10 -11 10 -15 0 -2 -6 -10 -9 -15 -6 -7 4 -8 2 -4 -4 5 -9 70 -12 221
-12 192 0 214 2 208 16 -4 12 -8 12 -13 4 -11 -17 -77 -4 -89 18 -10 16 -10
15 -11 -2 0 -16 -5 -18 -42 -12 -23 4 -46 12 -50 19 -5 8 -8 9 -8 1z"/>
<path d="M966 881 c-4 -7 -5 -15 -2 -18 9 -9 19 4 14 18 -4 11 -6 11 -12 0z"/>
<path d="M246 854 c-8 -30 1 -64 15 -64 6 0 7 9 4 21 -5 15 -4 19 4 15 6 -4
11 0 11 9 0 9 -4 13 -10 10 -14 -9 -13 8 2 23 9 9 8 12 -4 12 -9 0 -19 -12
-22 -26z"/>
<path d="M360 853 c0 -5 112 -7 249 -5 l250 3 4 -26 c4 -24 4 -24 3 2 l-1 28
-252 3 c-139 1 -253 -1 -253 -5z"/>
<path d="M205 840 c4 -6 11 -8 16 -5 14 9 11 15 -7 15 -8 0 -12 -5 -9 -10z"/>
<path d="M955 839 c-11 -4 -14 -8 -7 -8 6 -1 12 -10 12 -22 0 -14 4 -18 13
-12 6 4 20 6 30 5 9 -2 17 1 17 7 0 6 -7 8 -15 5 -9 -4 -18 2 -22 14 -6 14
-13 17 -28 11z"/>
<path d="M998 843 c7 -3 16 -2 19 1 4 3 -2 6 -13 5 -11 0 -14 -3 -6 -6z"/>
<path d="M386 831 c-4 -5 -9 -53 -13 -105 -3 -56 -10 -93 -15 -89 -6 3 -8 43
-5 92 2 47 2 70 0 51 -3 -19 -13 -40 -24 -48 -10 -7 -19 -20 -19 -28 0 -17 16
-19 23 -1 3 6 6 -7 6 -30 1 -25 -4 -43 -10 -43 -6 0 -9 6 -6 13 4 10 -2 13
-18 9 -13 -2 -26 -10 -29 -17 -3 -9 2 -12 13 -10 14 3 20 -4 25 -27 9 -44 8
-46 -15 -69 -11 -11 -15 -19 -7 -18 42 5 55 -1 50 -26 -4 -24 -16 -29 -53 -26
-13 1 -16 -7 -14 -36 3 -48 2 -48 20 -33 8 6 19 9 26 5 8 -6 7 -10 -2 -16 -12
-8 -12 -10 0 -18 8 -5 9 -11 3 -15 -5 -3 -7 -18 -4 -32 5 -26 6 -26 18 -9 8
10 14 13 14 7 0 -7 10 -12 22 -12 20 0 20 -1 5 -18 -24 -26 -21 -32 14 -32 17
0 37 -7 45 -15 19 -19 36 -19 149 0 103 17 161 19 169 6 3 -5 24 -11 46 -13
35 -3 39 -1 34 15 -4 11 0 23 7 28 11 8 9 13 -9 28 -12 11 -28 22 -35 24 -9 4
-9 8 2 15 11 8 10 14 -4 35 -26 41 0 60 39 28 15 -13 15 -15 0 -32 -15 -16
-14 -19 5 -31 12 -7 21 -18 21 -25 0 -7 7 -10 15 -7 8 4 15 1 15 -5 0 -6 5
-11 11 -11 7 0 9 19 7 50 -5 56 6 72 27 44 13 -18 14 -17 15 13 0 17 3 38 6
47 4 11 -2 15 -25 14 -17 -1 -34 2 -38 5 -3 4 -13 1 -22 -6 -9 -7 -28 -18 -43
-24 -22 -10 -27 -9 -32 4 -10 26 10 38 40 24 23 -10 26 -10 20 4 -3 10 -2 14
5 10 6 -4 13 2 16 14 3 12 13 21 25 21 14 0 18 5 14 16 -3 9 1 25 9 37 8 12
15 16 15 9 0 -6 13 -18 29 -26 28 -15 29 -15 34 10 2 13 0 27 -5 30 -4 3 -6
10 -3 15 9 13 -29 11 -43 -3 -13 -13 -15 -5 -6 30 4 12 13 22 21 22 8 0 11 5
7 11 -4 8 -9 8 -17 0 -6 -6 -19 -11 -29 -11 -10 0 -18 -5 -18 -11 0 -6 -6 -9
-12 -7 -8 3 -15 34 -19 84 l-5 79 -4 -85 -3 -85 -11 105 -11 105 -92 3 -93 3
0 -56 0 -55 -44 0 -45 0 -3 53 -3 52 -87 3 c-49 2 -89 -1 -92 -7z m254 -138
c-8 -2 -21 -6 -28 -9 -9 -3 -7 -14 8 -45 l21 -41 -37 -32 -38 -33 -41 18 c-50
22 -55 42 -15 59 16 7 30 18 30 25 0 7 9 24 21 39 16 20 29 26 57 25 20 0 30
-3 22 -6z m-178 -108 l3 -45 -42 0 c-33 0 -45 5 -54 22 -9 17 -9 23 0 26 6 2
9 8 5 13 -10 17 7 29 46 29 38 0 38 0 42 -45z m388 43 c10 -64 10 -78 1 -78
-6 0 -9 -6 -7 -12 1 -7 1 -10 -1 -5 -3 4 -22 7 -44 7 -36 0 -39 2 -39 29 0 50
9 61 51 61 21 0 39 -1 39 -2z m71 -57 c-11 -20 -51 -19 -51 1 0 6 9 8 19 5 15
-3 21 2 27 27 6 27 8 28 11 9 2 -12 0 -31 -6 -42z m-191 15 c0 -14 -54 -122
-70 -139 -14 -15 -78 25 -84 52 -4 21 2 32 31 56 20 17 52 33 72 36 20 3 39 7
44 8 4 0 7 -5 7 -13z m-380 -16 c0 -5 -4 -10 -10 -10 -5 0 -10 5 -10 10 0 6 5
10 10 10 6 0 10 -4 10 -10z m16 -130 c3 -29 2 -30 -19 -18 -19 11 -20 13 -4
16 13 3 16 9 11 25 -3 12 -3 19 1 15 4 -4 9 -21 11 -38z m58 -1 c-1 -13 3 -27
9 -31 8 -5 7 -14 -1 -32 -10 -23 -14 -25 -32 -14 -24 15 -25 31 -4 49 14 12
14 14 -3 26 -15 12 -16 15 -3 23 22 14 35 6 34 -21z m455 -20 c-20 -12 -22 -4
-7 20 11 18 14 19 16 5 2 -9 -2 -20 -9 -25z m-248 -28 c24 15 29 10 29 -31 0
-27 -4 -40 -14 -40 -7 0 -28 -3 -45 -6 l-31 -6 0 46 c0 44 1 45 23 37 14 -6
30 -6 38 0z m137 -56 c-3 -3 -9 2 -12 12 -6 14 -5 15 5 6 7 -7 10 -15 7 -18z
m-358 0 c0 -8 -9 -15 -20 -15 -25 0 -26 17 -2 23 9 3 18 5 20 6 1 0 2 -6 2
-14z m34 0 c-7 -16 -24 -21 -24 -6 0 8 7 13 27 20 1 1 0 -6 -3 -14z m96 -25
c0 -5 -2 -10 -4 -10 -3 0 -8 5 -11 10 -3 6 -1 10 4 10 6 0 11 -4 11 -10z m149
-24 c-11 -11 -59 -17 -59 -8 0 6 12 12 28 14 28 4 39 1 31 -6z m31 4 c0 -5 -2
-10 -4 -10 -3 0 -8 5 -11 10 -3 6 -1 10 4 10 6 0 11 -4 11 -10z m60 1 c0 -4
-11 -6 -25 -3 -14 2 -25 6 -25 8 0 2 11 4 25 4 14 0 25 -4 25 -9z m-214 -24
c4 -4 -7 -7 -25 -7 -18 0 -30 4 -27 8 6 10 42 9 52 -1z m-66 -1 c0 -9 -40 -13
-46 -5 -3 5 6 9 20 9 14 0 26 -2 26 -4z"/>
<path d="M1197 823 c-4 -3 -7 -28 -7 -55 l0 -48 533 2 532 3 0 50 0 50 -526 3
c-289 1 -529 -1 -532 -5z m103 -53 c0 -23 -4 -30 -20 -30 -11 0 -23 7 -26 15
-9 23 3 45 26 45 16 0 20 -7 20 -30z m55 0 c0 -16 -6 -26 -18 -28 -19 -4 -32
20 -23 44 9 25 41 13 41 -16z m45 11 c0 8 12 15 30 16 27 2 30 -1 30 -27 0
-36 -26 -41 -40 -7 -6 16 -9 17 -9 5 -2 -43 -41 -27 -41 17 1 20 1 20 15 1 11
-14 15 -16 15 -5z m108 -11 c2 -20 -2 -26 -18 -26 -15 0 -20 7 -20 29 0 22 4
28 18 25 10 -2 18 -14 20 -28z m33 18 c0 -10 2 -10 6 0 9 23 23 12 23 -18 0
-16 -4 -30 -10 -30 -5 0 -10 5 -10 11 0 8 -5 8 -15 -1 -13 -11 -15 -8 -15 19
0 29 19 46 21 19z m84 -18 c0 -16 -6 -26 -18 -28 -19 -4 -32 20 -23 44 9 25
41 13 41 -16z m65 19 c0 6 5 11 10 11 6 0 10 -15 10 -32 0 -18 -4 -28 -8 -23
-11 15 -32 17 -32 3 0 -9 -3 -9 -11 -1 -6 6 -8 21 -4 33 5 17 10 19 21 9 10
-8 14 -8 14 0z m51 -11 l2 -23 4 23 c6 32 25 27 21 -5 -2 -20 -9 -28 -23 -28
-14 0 -21 8 -23 28 -2 15 1 27 7 27 6 0 12 -10 12 -22z m59 10 c0 -8 3 -9 8
-3 4 6 15 11 25 11 13 1 17 -6 16 -30 -1 -29 -1 -30 -8 -6 l-7 25 -7 -25 c-7
-24 -8 -24 -21 -7 -14 18 -14 18 -19 0 -3 -10 -5 -4 -6 15 0 17 4 32 9 32 6 0
10 -6 10 -12z m130 -20 c0 -17 -4 -27 -10 -23 -5 3 -10 13 -10 21 0 8 -7 14
-15 14 -18 0 -20 -17 -2 -23 6 -2 9 -8 4 -13 -4 -4 -15 0 -24 9 -21 21 -4 45
32 45 21 0 25 -5 25 -30z m45 21 c4 -6 -2 -19 -14 -30 l-21 -20 0 31 c0 30 21
42 35 19z m49 -5 c11 -29 6 -39 -19 -40 -29 -2 -28 -3 -15 30 11 29 25 34 34
10z m36 -10 c0 -8 5 -14 11 -14 5 0 7 -4 4 -10 -14 -22 -35 -10 -35 21 0 17 4
28 10 24 6 -3 10 -13 10 -21z m80 11 c10 -12 10 -18 0 -30 -21 -25 -40 -18
-40 15 0 33 19 40 40 15z m50 -15 c0 -20 -5 -30 -15 -30 -10 0 -15 10 -15 30
0 20 5 30 15 30 10 0 15 -10 15 -30z"/>
<path d="M1330 770 c0 -5 5 -10 10 -10 6 0 10 5 10 10 0 6 -4 10 -10 10 -5 0
-10 -4 -10 -10z"/>
<path d="M300 803 c-9 -2 -22 -24 -29 -49 -11 -36 -17 -43 -32 -39 -20 7 -40
-21 -32 -43 4 -10 10 -7 20 8 11 15 23 20 39 17 14 -2 27 0 30 5 3 4 0 7 -7 6
-7 -2 -15 5 -17 16 -2 11 0 16 7 12 6 -4 11 -3 11 3 0 6 7 8 15 5 9 -4 16 3
21 21 7 29 -3 43 -26 38z"/>
<path d="M890 806 c0 -2 5 -17 11 -35 7 -20 16 -30 25 -27 8 3 11 0 7 -10 -8
-22 5 -50 19 -36 16 16 48 -4 48 -30 0 -16 3 -19 11 -11 7 7 9 23 5 38 -5 21
-12 26 -26 22 -11 -3 -20 0 -20 6 0 7 -7 3 -15 -7 -15 -19 -15 -19 -15 2 0 12
4 22 9 22 10 0 2 48 -10 56 -11 6 -49 14 -49 10z"/>
<path d="M890 721 c0 -5 3 -17 6 -26 5 -12 9 -14 14 -4 5 7 6 18 3 26 -6 15
-23 18 -23 4z"/>
<path d="M1067 683 c-4 -3 -7 -46 -7 -95 l0 -88 26 0 c26 0 27 1 21 56 l-6 57
17 -34 c24 -48 57 -51 76 -7 l15 33 -6 -52 c-5 -52 -5 -53 21 -53 l26 0 0 95
c0 89 -1 95 -20 95 -14 0 -27 -14 -42 -45 -12 -25 -25 -45 -28 -45 -4 0 -17
20 -30 45 -21 41 -46 56 -63 38z"/>
<path d="M1290 595 c0 -95 0 -95 25 -95 25 0 25 0 25 95 0 95 0 95 -25 95 -25
0 -25 0 -25 -95z"/>
<path d="M1370 595 l0 -95 65 0 c58 0 65 2 65 19 0 16 -8 20 -37 23 l-38 3 -3
73 c-3 69 -4 72 -27 72 -25 0 -25 -1 -25 -95z"/>
<path d="M1571 671 c-12 -22 -61 -155 -61 -165 0 -13 48 -5 54 9 3 9 18 15 35
15 16 0 31 -6 35 -15 4 -12 57 -23 56 -12 0 1 -15 43 -33 92 -26 72 -37 91
-54 93 -14 2 -26 -4 -32 -17z m38 -88 c1 -7 -6 -13 -15 -13 -11 0 -14 5 -10
16 3 9 6 23 7 32 0 14 2 13 9 -3 5 -11 9 -26 9 -32z"/>
<path d="M1720 670 c-15 -15 -20 -33 -20 -78 0 -72 19 -95 80 -95 54 0 80 24
80 74 l0 39 -42 -3 c-32 -1 -44 -7 -46 -19 -2 -13 3 -18 18 -18 13 0 20 -5 18
-12 -3 -7 -16 -13 -29 -13 -21 0 -24 5 -27 46 -3 52 17 72 47 45 17 -16 61
-11 61 5 0 23 -42 49 -80 49 -27 0 -47 -7 -60 -20z"/>
<path d="M1890 596 c0 -96 0 -96 25 -96 21 0 25 5 25 30 0 17 4 30 10 30 5 0
16 -13 25 -30 11 -21 23 -30 40 -30 28 0 32 16 10 47 -13 18 -13 22 0 33 20
16 19 74 -1 91 -9 7 -42 15 -75 17 l-59 4 0 -96z m98 27 c-2 -10 -12 -18 -23
-18 -11 0 -21 8 -23 18 -3 13 3 17 23 17 20 0 26 -4 23 -17z"/>
<path d="M2070 595 l0 -96 68 3 c52 2 67 6 67 18 0 10 -13 16 -42 18 -55 4
-61 32 -8 32 31 0 35 3 35 25 0 22 -4 25 -35 25 -19 0 -35 5 -35 10 0 6 18 10
40 10 36 0 40 3 40 25 0 24 -2 25 -65 25 l-65 0 0 -95z"/>
<path d="M2252 674 c-24 -17 -30 -65 -9 -82 6 -6 27 -14 46 -19 19 -5 36 -14
39 -21 5 -15 -40 -16 -54 -2 -13 13 -44 2 -44 -15 0 -33 66 -51 113 -31 65 27
52 95 -21 110 -24 5 -42 15 -42 22 0 16 36 19 45 4 8 -12 25 -13 45 0 12 7 12
12 -4 29 -23 25 -82 28 -114 5z"/>
<path d="M228 593 c-2 -10 -2 -29 2 -42 5 -24 6 -24 25 -5 10 10 21 19 24 19
3 0 5 5 3 10 -1 6 5 1 14 -10 15 -18 16 -18 10 -2 -3 10 -6 26 -6 35 0 13 -2
14 -9 3 -6 -9 -11 -10 -15 -2 -11 17 -43 13 -48 -6z"/>
<path d="M930 509 c0 -5 5 -7 10 -4 6 3 10 8 10 11 0 2 -4 4 -10 4 -5 0 -10
-5 -10 -11z"/>
<path d="M1218 463 c6 -2 18 -2 25 0 6 3 1 5 -13 5 -14 0 -19 -2 -12 -5z"/>
<path d="M1932 440 c0 -19 2 -27 5 -17 2 9 2 25 0 35 -3 9 -5 1 -5 -18z"/>
<path d="M1705 450 c-3 -5 -1 -10 4 -10 6 0 11 5 11 10 0 6 -2 10 -4 10 -3 0
-8 -4 -11 -10z"/>
<path d="M1972 435 c0 -16 2 -22 5 -12 2 9 2 23 0 30 -3 6 -5 -1 -5 -18z"/>
<path d="M1252 430 c0 -14 2 -19 5 -12 2 6 2 18 0 25 -3 6 -5 1 -5 -13z"/>
<path d="M1462 430 c0 -14 2 -19 5 -12 2 6 2 18 0 25 -3 6 -5 1 -5 -13z"/>
<path d="M1504 430 c0 -13 4 -16 10 -10 7 7 7 13 0 20 -6 6 -10 3 -10 -10z"/>
<path d="M1572 425 c0 -16 2 -22 5 -12 2 9 2 23 0 30 -3 6 -5 -1 -5 -18z"/>
<path d="M1905 439 c-4 -6 -5 -12 -2 -15 2 -3 7 2 10 11 7 17 1 20 -8 4z"/>
<path d="M2042 430 c0 -14 2 -19 5 -12 2 6 2 18 0 25 -3 6 -5 1 -5 -13z"/>
<path d="M2072 430 c0 -14 2 -19 5 -12 2 6 2 18 0 25 -3 6 -5 1 -5 -13z"/>
<path d="M2142 430 c0 -14 2 -19 5 -12 2 6 2 18 0 25 -3 6 -5 1 -5 -13z"/>
<path d="M2163 435 c-3 -9 -3 -19 1 -22 3 -4 6 1 6 10 0 8 6 18 13 20 9 4 9 6
-1 6 -7 1 -15 -6 -19 -14z"/>
<path d="M2232 430 c0 -14 2 -19 5 -12 2 6 2 18 0 25 -3 6 -5 1 -5 -13z"/>
<path d="M1401 424 c0 -11 3 -14 6 -6 3 7 2 16 -1 19 -3 4 -6 -2 -5 -13z"/>
<path d="M1621 424 c0 -11 3 -14 6 -6 3 7 2 16 -1 19 -3 4 -6 -2 -5 -13z"/>
<path d="M1641 424 c0 -11 3 -14 6 -6 3 7 2 16 -1 19 -3 4 -6 -2 -5 -13z"/>
</g>
</svg>
